<mxfile host="app.diagrams.net" agent="Mozilla/5.0 (Windows NT 10.0; Win64; x64; rv:136.0) Gecko/20100101 Firefox/136.0" version="26.1.1">
  <diagram name="Page-1" id="c-G-5LoDOLamyuXIpxEz">
    <mxGraphModel dx="474" dy="790" grid="1" gridSize="10" guides="1" tooltips="1" connect="1" arrows="1" fold="1" page="1" pageScale="1" pageWidth="850" pageHeight="1100" math="0" shadow="0">
      <root>
        <mxCell id="0" />
        <mxCell id="1" parent="0" />
        <mxCell id="u7qCnwPZNz6O6XRO4Yd9-4" style="edgeStyle=orthogonalEdgeStyle;rounded=0;orthogonalLoop=1;jettySize=auto;html=1;exitX=0.5;exitY=1;exitDx=0;exitDy=0;entryX=0.5;entryY=1;entryDx=0;entryDy=0;" edge="1" parent="1" source="u7qCnwPZNz6O6XRO4Yd9-1" target="u7qCnwPZNz6O6XRO4Yd9-2">
          <mxGeometry relative="1" as="geometry" />
        </mxCell>
        <mxCell id="u7qCnwPZNz6O6XRO4Yd9-5" style="edgeStyle=orthogonalEdgeStyle;rounded=0;orthogonalLoop=1;jettySize=auto;html=1;exitX=1;exitY=1;exitDx=0;exitDy=0;entryX=0;entryY=1;entryDx=0;entryDy=0;" edge="1" parent="1" source="u7qCnwPZNz6O6XRO4Yd9-1" target="u7qCnwPZNz6O6XRO4Yd9-2">
          <mxGeometry relative="1" as="geometry" />
        </mxCell>
        <mxCell id="u7qCnwPZNz6O6XRO4Yd9-6" style="edgeStyle=orthogonalEdgeStyle;rounded=0;orthogonalLoop=1;jettySize=auto;html=1;exitX=1;exitY=0.5;exitDx=0;exitDy=0;entryX=0;entryY=0.5;entryDx=0;entryDy=0;" edge="1" parent="1" source="u7qCnwPZNz6O6XRO4Yd9-1" target="u7qCnwPZNz6O6XRO4Yd9-2">
          <mxGeometry relative="1" as="geometry" />
        </mxCell>
        <mxCell id="u7qCnwPZNz6O6XRO4Yd9-7" style="edgeStyle=orthogonalEdgeStyle;rounded=0;orthogonalLoop=1;jettySize=auto;html=1;exitX=1;exitY=0;exitDx=0;exitDy=0;entryX=0;entryY=0;entryDx=0;entryDy=0;" edge="1" parent="1" source="u7qCnwPZNz6O6XRO4Yd9-1" target="u7qCnwPZNz6O6XRO4Yd9-2">
          <mxGeometry relative="1" as="geometry" />
        </mxCell>
        <mxCell id="u7qCnwPZNz6O6XRO4Yd9-8" style="edgeStyle=orthogonalEdgeStyle;rounded=0;orthogonalLoop=1;jettySize=auto;html=1;exitX=0.5;exitY=0;exitDx=0;exitDy=0;entryX=0.5;entryY=0;entryDx=0;entryDy=0;" edge="1" parent="1" source="u7qCnwPZNz6O6XRO4Yd9-1" target="u7qCnwPZNz6O6XRO4Yd9-2">
          <mxGeometry relative="1" as="geometry" />
        </mxCell>
        <mxCell id="u7qCnwPZNz6O6XRO4Yd9-1" value="T1" style="ellipse;whiteSpace=wrap;html=1;aspect=fixed;" vertex="1" parent="1">
          <mxGeometry x="120" y="150" width="50" height="50" as="geometry" />
        </mxCell>
        <mxCell id="u7qCnwPZNz6O6XRO4Yd9-2" value="T2" style="ellipse;whiteSpace=wrap;html=1;aspect=fixed;" vertex="1" parent="1">
          <mxGeometry x="350" y="150" width="50" height="50" as="geometry" />
        </mxCell>
      </root>
    </mxGraphModel>
  </diagram>
</mxfile>
